<svg xmlns="http://www.w3.org/2000/svg" viewBox="0 0 100 100" width="100" height="100">
  <defs>
    <linearGradient id="goldGradient" x1="0%" y1="0%" x2="100%" y2="100%">
      <stop offset="0%" style="stop-color:#FFD700;stop-opacity:1" />
      <stop offset="50%" style="stop-color:#FFA500;stop-opacity:1" />
      <stop offset="100%" style="stop-color:#FF8C00;stop-opacity:1" />
    </linearGradient>
    <filter id="glow">
      <feGaussianBlur stdDeviation="2" result="coloredBlur"/>
      <feMerge> 
        <feMergeNode in="coloredBlur"/>
        <feMergeNode in="SourceGraphic"/>
      </feMerge>
    </filter>
  </defs>
  
  <!-- Brain outline -->
  <path d="M50 15 C65 15, 75 25, 75 40 C80 40, 85 45, 85 50 C85 55, 80 60, 75 60 C75 70, 70 75, 60 75 L40 75 C30 75, 25 70, 25 60 C20 60, 15 55, 15 50 C15 45, 20 40, 25 40 C25 25, 35 15, 50 15 Z" 
        fill="url(#goldGradient)" 
        stroke="#B8860B" 
        stroke-width="1.5"
        filter="url(#glow)"/>
  
  <!-- Brain folds/details -->
  <path d="M35 30 Q45 35, 40 45 Q50 40, 55 50 Q60 45, 65 55 Q55 60, 45 55 Q40 65, 35 55 Q30 50, 35 40 Q25 35, 35 30" 
        fill="none" 
        stroke="#B8860B" 
        stroke-width="1.2" 
        opacity="0.7"/>
  
  <path d="M45 25 Q55 30, 50 40 Q60 35, 65 45 Q70 40, 75 50" 
        fill="none" 
        stroke="#B8860B" 
        stroke-width="1" 
        opacity="0.6"/>
  
  <path d="M30 45 Q40 50, 35 60 Q45 55, 50 65 Q55 60, 60 65" 
        fill="none" 
        stroke="#B8860B" 
        stroke-width="1" 
        opacity="0.6"/>
  
  <!-- Highlight for 3D effect -->
  <ellipse cx="45" cy="35" rx="8" ry="6" 
           fill="#FFFF99" 
           opacity="0.4"/>
  
  <!-- Small sparkle effects -->
  <circle cx="55" cy="30" r="1.5" fill="#FFFF99" opacity="0.8"/>
  <circle cx="40" cy="50" r="1" fill="#FFFF99" opacity="0.6"/>
  <circle cx="60" cy="55" r="1.2" fill="#FFFF99" opacity="0.7"/>
</svg>